<svg xmlns="http://www.w3.org/2000/svg" viewBox="0 0 1094.46 342.17"><defs><style>.cls-1{fill:#53b848;}</style></defs><g id="Layer_2" data-name="Layer 2"><g id="Layer_1-2" data-name="Layer 1"><path d="M183.77,251.91c-30.7,1.2-121.3,10.4-119.5,12.1.3.3,8.5-.1,18.2-.9,23.7-1.9,141.9-1.9,160.3-.1,51.1,5.2,105.6,18.1,149,35.3,25.5,10.1,59.8,28,82.1,43,16.3,10.9,37.4,27.2,45,34.6,4.9,4.8,7.9,7.1,8.4,6.4,1-1.6-28.3-32.1-42.7-44.4-40.6-34.8-86.3-57.2-146.1-71.7C290.07,254.51,238.77,249.71,183.77,251.91Z" transform="translate(0 -97.55)"/><path d="M846.27,252.31c-66.9,4.4-131.1,21-178.5,46.1-26.1,13.8-46.5,28.5-71.7,51.7-8.4,7.7-27.3,28-28.1,30.2-.9,2.4,2.6,0,14.4-10.1,69.3-59,155.2-93.8,263.9-106.7,16.8-1.9,133.5-3.1,149-1.4,14.9,1.6,36.1,2.3,31,1-4.1-1-10.2-1.7-63.5-6.8C908.67,251.21,878.87,250.11,846.27,252.31Z" transform="translate(0 -97.55)"/><path d="M7.77,264.51a11.9,11.9,0,0,0-7.7,12.6c.7,6.2,3.7,8.8,13.8,11.7,17.6,5.2,161.7,43.3,167.9,44.5a33.37,33.37,0,0,1,7.6,2c.6.5,53.2,14.8,117,31.8s124.9,33.4,135.9,36.5,22.9,6.2,26.4,7.1c8.7,2.2,13.2,4.6,22.1,11.8,8.6,7,18.1,11.6,30.1,14.9,7.3,2,10.8,2.3,26.4,2.3,15.8,0,19-.3,26-2.3a96.12,96.12,0,0,0,32.6-16.7c5.5-4.3,10-7.1,13.4-8,2.7-.8,56.1-15.1,118.5-31.9,355.7-95.4,347.2-93.1,351.1-95.1s6.3-7.5,5.4-12.3c-.8-4.3-5.5-8.9-9.8-9.7-2.3-.4-14.1,2.4-40.2,9.4-112.3,30.2-248.5,66.7-295,79-29.1,7.7-66,17.6-82,22.1-59.3,16.4-67.2,17.5-122,17.4-25.3-.1-45.9-.6-51.9-1.3-11.1-1.3-20.7-3.6-64.5-15.6-73.8-20.1-218.9-58.5-221.2-58.5a6.07,6.07,0,0,1-3.5-1c-.6-.6-35.4-10.2-77.5-21.4s-84.9-22.7-95.3-25.5-19.2-5.1-19.5-5A24.88,24.88,0,0,0,7.77,264.51Z" transform="translate(0 -97.55)"/><path d="M932.37,275.31c-19.3.8-53.2,3.5-63.6,5-3.6.6-9.3,1.2-12.7,1.4-17.7,1.2-57.4,8.4-85.8,15.6-35.3,9-81,25.9-111.8,41.6-21.1,10.7-56.5,32.8-60.6,37.7-2.8,3.3,2.1,1.4,23.6-9.2,26.4-13.1,42.7-20.4,63.7-28.9,43.4-17.4,98.6-33.4,148.1-42.8,10.5-2,22.2-4.4,26-5.3a51.4,51.4,0,0,1,8.5-1.5c.8.1,24-2.2,51.5-5.2,31.7-3.4,57-5.6,69-5.9,23.3-.8,33.5-1.6,33.5-2.7S958.37,274.31,932.37,275.31Z" transform="translate(0 -97.55)"/><path d="M72.77,276c0,.5,8.7,1.2,19.3,1.5,19.2.6,68.3,4.3,97.7,7.3,66,6.6,149.1,26.3,206.5,48.7,19.2,7.5,35.8,15,71.3,32.1,28.9,13.9,33.2,15.7,33.2,13.7,0-1-29.3-20.4-42.4-28-12.5-7.3-40.1-21-54.6-27.2-65.6-27.5-131.8-41.6-225.8-47.9C159.47,275,72.77,274.81,72.77,276Z" transform="translate(0 -97.55)"/><path d="M290.15,172.54H222v56.1h74.61l-1.52,9.55H211.72V104.61h81.86v9.54H222V163h68.13Z" transform="translate(0 -97.55)"/><path d="M393,97.55V210.71c0,9.16,0,17.93.19,27.48H384c-.38-2.29-.57-11.26-.57-16-4.77,11.64-15.46,18.32-32.06,18.32-24.8,0-39.69-20.23-39.69-48.86,0-29.38,16.22-51.14,42.17-51.14,19.09,0,26.72,8.21,29.58,14.31V97.55Zm-71.18,93.69c0,26.14,13.55,40.27,30,40.27,25.19,0,32.06-17.37,32.06-43.32,0-24.62-5.91-38.74-30.34-38.74C334.61,149.45,321.82,164.53,321.82,191.24Z" transform="translate(0 -97.55)"/><path d="M495.67,210.32c0,9.35.19,24.24.19,27.87H486.7a154.24,154.24,0,0,1-.57-16.61c-4,11.26-13.74,18.9-30.73,18.9-13.74,0-31.29-5.35-31.29-34.54V142.77h9.35v60.88c0,13.93,4.39,27.47,23.28,27.47,21.37,0,29.39-12,29.39-39.31v-49h9.54Z" transform="translate(0 -97.55)"/><path class="cls-1" d="M630.77,202.5c-6.29,21.18-21.94,37.21-50.19,37.21-38.35,0-58.58-30.53-58.58-68.12,0-36.07,19.85-68.89,58.78-68.89,28.81,0,45.79,16,50.18,38.35h-10.3c-6.11-17.36-17.37-28.81-40.46-28.81-33.2,0-47.13,30.34-47.13,59.16,0,28.62,13.74,58.77,47.9,58.77,21.75,0,32.82-11.26,39.5-27.67Z" transform="translate(0 -97.55)"/><path class="cls-1" d="M720.08,220.06a108.25,108.25,0,0,0,1.34,18.13h-9.16c-.77-2.29-1.34-6.49-1.72-14.7-3.25,7.06-11.64,17-31.3,17-22.13,0-31.68-14.32-31.68-28.63,0-21,16.23-30.53,44.85-30.53h18.13v-9.73c0-9.54-2.86-22.33-24.62-22.33-19.27,0-22.13,10.11-24.23,17.94h-9.54c1.14-10.5,7.63-26.72,34-26.72,21.76,0,34,9.16,34,30.15Zm-9.35-30.54H692c-21.18,0-34.35,5.54-34.35,21.95,0,12,8.59,20.23,21.94,20.23,27.29,0,31.11-18.13,31.11-38.74Z" transform="translate(0 -97.55)"/><path class="cls-1" d="M751.56,168.72c0-16-.19-22.89-.19-25.95h9.36c.19,3.06.38,9.16.38,21.37,5.53-14.31,17.74-22.89,33.2-23.66v10.31c-19.85,1.33-33.2,15.07-33.2,37.78v49.62h-9.55Z" transform="translate(0 -97.55)"/><path class="cls-1" d="M814,191.62c.19,24.62,12.59,39.89,30.91,39.89,17.94,0,24-10.12,27.48-17.94h9.73c-4,12.59-14.12,26.91-37.59,26.91-29,0-40.27-25-40.27-49.24,0-27.29,13.55-50.76,41.41-50.76,29.39,0,38.74,25.38,38.74,43.32,0,2.67,0,5.34-.19,7.82Zm60.49-8.39c-.19-18.89-10.5-33.78-29.2-33.78-19.65,0-28.62,13.74-30.72,33.78Z" transform="translate(0 -97.55)"/><path d="M680.75,261.06c-5.13.44-10.14,1.66-15.21,2.49A302.64,302.64,0,0,0,634,284.61c-20.17,15.5-35.31,30.74-53.2,53.6-6,7.59-18.93,27.05-19.26,28.94-.39,2.07,2.23-.45,10.73-10.54,33-38.92,73.84-70.66,124-96.08C691.05,260.54,685.88,260.62,680.75,261.06Z" transform="translate(0 -97.55)"/><path d="M413.68,261.06c5.12.44,10.13,1.66,15.2,2.49a301.59,301.59,0,0,1,31.57,21.06c20.17,15.5,35.31,30.74,53.2,53.6,6,7.59,18.93,27.05,19.26,28.94.39,2.07-2.23-.45-10.73-10.54-33-38.92-73.84-70.66-124-96.08C403.37,260.54,408.54,260.62,413.68,261.06Z" transform="translate(0 -97.55)"/></g></g></svg>